<svg version="1.1" baseProfile="full" width="500" height="500" xmlns="http://www.w3.org/2000/svg">
    <rect x="10" y="10" width="30" height="30" stroke="black" fill="transparent" stroke-width="5"/>
    <rect x="60" y="10" rx="10" ry="10" width="30" height="30"/>
    <circle cx="25" cy="75" r="20"/>
    <ellipse cx="75" cy="75" rx="20" ry="5"/>
    <line x1="10" x2="50" y1="110" y2="150"/>
    <polyline points="60 110, 65 120, 70 115, 75 130, 80 125, 85 140, 90 135, 95 150, 100 145"/>
    <polygon points="50 160, 55 180, 70 180, 60 190, 65 205, 50 195, 35 205, 40 190, 30 180, 45 180"/>
    <path d="M 20 230 Q 40 205, 50 230 T 90230"/>
</svg>